<svg width="33" height="45" viewBox="0 0 33 45" fill="none" xmlns="http://www.w3.org/2000/svg">
<path d="M19.1121 2.40457C21.4704 2.74968 23.7135 3.66995 25.6116 5.10789C27.2221 6.31575 28.4875 7.92624 29.3502 9.76679C30.098 11.3773 30.5006 13.2178 30.4431 15.0009C30.3855 15.8636 30.2705 16.7264 29.9829 17.5316H29.8679L29.9254 16.3238C29.9829 14.5982 29.8104 12.9302 29.1777 11.3198C28.6025 9.59424 27.5672 8.04127 26.3018 6.77589C23.8861 4.4752 20.6651 3.20982 17.3291 3.1523C15.1593 3.11643 13.0109 3.58633 11.0542 4.52477C9.09741 5.4632 7.38608 6.84439 6.05572 8.55893C4.35241 10.8605 3.53561 13.6989 3.75502 16.5538L3.87006 17.9918C4.3302 17.9918 4.96289 17.9918 5.30799 18.3944L5.13544 18.5669L4.15764 18.6245C3.46744 18.682 2.77723 18.912 2.25957 19.3722C1.68738 19.9865 1.34238 20.778 1.28178 21.6154C0.994192 23.4559 1.97199 25.354 3.52495 26.3893C4.44523 26.9645 5.59558 27.2521 6.68841 26.9069C6.91848 26.7919 7.20606 26.6194 7.49365 26.7344C7.6662 26.7919 7.72372 26.9645 7.78124 27.137C8.95121 29.4896 10.741 31.4783 12.9578 32.8887C13.4179 33.2914 13.9931 33.6365 14.5683 33.9241C15.6036 34.3842 16.7539 34.7293 17.8468 35.0169L19.6873 35.477C19.9749 35.5345 20.205 35.5345 20.435 35.6496L20.205 35.7071C18.767 35.8221 17.4441 35.5345 16.0637 35.1319C15.3735 34.9594 14.7408 34.7293 14.1081 34.4417C12.3009 33.5212 10.6664 32.2953 9.27668 30.8181L9.39172 32.4286C9.44924 33.4064 9.39172 34.4417 9.04662 35.4195C8.81655 36.1097 8.41393 36.7999 7.95379 37.3751C7.37861 37.9503 6.68841 38.4679 5.9982 38.8705C5.42303 39.2732 4.79034 39.6758 4.15764 39.9059L3.23737 40.1934L3.75502 39.6758L5.53806 38.5254L6.80344 37.5477C7.77381 36.7215 8.42487 35.5821 8.64399 34.3267C8.75903 33.5214 8.75903 32.7162 8.75903 31.8534V30.3005C8.18386 29.4952 7.49365 28.6325 7.20606 27.6547C6.22827 28.1148 5.0204 28.0573 4.04261 27.5972C3.06482 27.1945 2.20206 26.5043 1.56937 25.6991C0.879158 24.7213 0.476537 23.6285 0.361502 22.4781C0.246467 21.3278 0.476537 20.1774 1.22426 19.2571C1.74192 18.682 2.48964 18.2218 3.23737 18.0493C3.0073 17.244 2.89226 16.3813 2.89226 15.5185C2.93958 13.6168 3.38952 11.7466 4.21241 10.0314C5.0353 8.31627 6.21244 6.79503 7.6662 5.56803C9.23681 4.2528 11.0713 3.28982 13.0459 2.7441C15.0204 2.19837 17.089 2.08259 19.1121 2.40457Z" fill="#262626"/>
<path d="M26.3014 6.78175C27.5668 8.04713 28.6021 9.6001 29.1773 11.3256C29.81 12.9361 29.9825 14.6041 29.925 16.3296L29.8675 17.5375L29.5799 18.4002L29.4649 19.148L29.5799 22.3689C29.5799 23.5768 29.6374 24.7847 29.5224 25.9925L29.3499 28.6958C29.2348 29.6161 28.9472 30.4789 28.5446 31.2841C27.9119 32.3194 27.0492 33.1822 26.0139 33.8149C25.2661 34.275 24.4609 34.5051 23.6556 34.7352L21.47 35.3679L20.4922 35.5404C20.4922 35.5979 20.5497 35.6554 20.6647 35.6554C21.1249 35.943 21.6425 35.943 22.1602 35.8855C21.9876 36.2881 21.9301 36.6908 22.0452 37.1509C22.2177 37.5535 22.6779 37.7836 23.023 37.9561C23.7132 38.3012 24.4034 38.3588 25.0936 38.4738C25.4962 38.8189 25.8988 39.279 26.0139 39.8542C26.1289 40.3143 26.1289 40.7745 25.8988 41.1771C25.6112 41.7523 25.0936 42.2124 24.5184 42.5C23.7707 42.9601 22.9654 43.3052 22.1027 43.5353C17.9034 44.5405 13.5239 44.5208 9.33383 43.4778C8.35604 43.2477 7.43576 42.9601 6.573 42.5C5.88279 42.1549 5.2501 41.7523 4.73245 41.2346C4.44486 40.832 4.21479 40.4294 4.15728 39.9117C4.78997 39.6817 5.42266 39.279 5.99783 38.8764C6.68804 38.4738 7.37825 37.9561 7.95342 37.381C8.41356 36.8058 8.81618 36.1156 9.04625 35.4254C9.39135 34.4476 9.44887 33.4123 9.39135 32.4345L9.27632 30.824L10.5417 32.1469C11.6345 33.0096 12.8424 33.8724 14.1078 34.4476C14.7405 34.7352 15.3732 34.9652 16.0634 35.1378C17.4438 35.5404 18.7667 35.828 20.2046 35.713L20.4347 35.6554C20.2046 35.5404 19.9745 35.5404 19.687 35.4829L17.8464 35.0228C16.7536 34.7352 15.6032 34.3901 14.5679 33.9299L12.8999 32.9521C12.2672 32.4345 11.577 31.9743 11.0018 31.3992C9.67296 30.1929 8.58063 28.7495 7.78087 27.1429C7.72335 26.9703 7.66583 26.7978 7.49328 26.7403C7.20569 26.6252 6.91811 26.7978 6.68804 26.9128C5.59521 27.2579 4.44486 26.9703 3.52459 26.3952C2.74797 25.8825 2.12772 25.1657 1.73198 24.3235C1.33624 23.4813 1.18034 22.5463 1.28141 21.6212C1.33893 20.816 1.68403 20.0107 2.2592 19.378C2.77686 18.9179 3.46707 18.6878 4.15728 18.6303L5.13507 18.5728L5.30762 18.4002C4.96252 17.9976 4.32983 17.9976 3.86969 17.9976L3.75465 16.5597C3.53524 13.7048 4.35204 10.8664 6.05535 8.56479C7.38571 6.85025 9.09704 5.46906 11.0538 4.53063C13.0105 3.59219 15.1589 3.12229 17.3287 3.15816C20.6647 3.21568 23.8857 4.48106 26.3014 6.78175Z" fill="#FFDECC"/>
<path d="M29.5808 18.3984C29.7534 18.3984 29.7534 18.6285 29.8109 18.7435C29.9834 19.3762 30.0409 20.0664 30.0985 20.6991L30.2135 21.907C30.271 23.1724 30.3285 24.3802 30.271 25.6456C30.2135 26.8535 30.2135 28.1764 29.9834 29.3842C29.7391 30.6367 29.192 31.8104 28.39 32.8029C27.588 33.7954 26.5553 34.5766 25.382 35.0785C24.5193 35.4811 23.599 35.7111 22.6212 35.8262V36.6889C22.6787 36.8615 22.7938 36.919 22.9088 37.034C23.599 37.3791 24.2317 37.4942 24.9794 37.6667C25.6696 37.8393 26.3598 37.9543 27.05 38.2994C26.8775 38.472 26.6474 38.5295 26.4173 38.5295C26.0147 38.587 25.5546 38.472 25.0944 38.472C24.4042 38.3569 23.714 38.2994 23.0238 37.9543C22.6787 37.7818 22.2186 37.5517 22.046 37.1491C21.931 36.6889 21.9885 36.2863 22.1611 35.8837C21.6434 35.9412 21.1258 35.9412 20.6656 35.6536C20.5506 35.6536 20.4931 35.5961 20.4931 35.5386L21.4709 35.366L23.6565 34.7334C24.4618 34.5033 25.267 34.2732 26.0147 33.8131C27.05 33.1804 27.9128 32.3176 28.5455 31.2823C28.9481 30.4771 29.2357 29.6143 29.3507 28.694L29.5233 25.9907C29.6383 24.7829 29.5808 23.575 29.5808 22.3671L29.4658 19.1462L29.5808 18.3984ZM3.23787 19.9514C3.69801 19.9514 4.21566 20.0089 4.56077 20.354C4.84836 20.5841 5.13594 20.8717 5.25098 21.2168C5.30849 21.3893 5.25098 21.5619 5.13594 21.6769L4.38822 22.1371C3.9856 22.4822 3.9856 23.2299 4.38822 23.575C4.73332 23.8626 5.19346 24.0351 5.59608 24.2077C5.71112 24.2077 5.88367 24.2652 5.94118 24.3802C5.88367 24.4953 5.76863 24.5528 5.6536 24.5528C5.07842 24.5528 4.50325 24.3802 4.04311 24.0351C3.75553 23.8626 3.58297 23.575 3.52546 23.2874C3.41042 22.8273 3.41042 22.3096 3.75553 21.907C3.9856 21.5619 4.38822 21.3893 4.79084 21.2168C4.56077 20.9292 4.38822 20.5841 3.9856 20.4691C3.58297 20.2965 3.12284 20.2965 2.72021 20.1815L3.23787 19.9514Z" fill="#262626"/>
<path d="M28.0268 16.2734C28.2569 16.2734 28.487 16.2734 28.602 16.446C28.8321 16.6185 28.8321 17.0212 28.5445 17.1937C28.3719 17.3087 28.1994 17.3087 27.9693 17.3087L26.934 17.5388C26.934 17.9414 26.8765 18.4016 26.7039 18.8042C26.5889 19.0918 26.3588 19.3219 26.1287 19.4944C25.7836 19.667 25.381 19.5519 25.151 19.2643L24.9784 18.8042C24.8059 18.9768 24.6908 19.1493 24.4607 19.2643C24.2882 19.3219 24.2307 19.2643 24.2307 19.0918C24.2882 18.7467 24.4607 18.4591 24.6908 18.229C25.2965 17.3902 26.1371 16.7498 27.1065 16.3885L28.0268 16.2734ZM14.1076 17.0787C14.7403 17.0787 15.3155 17.1937 15.8907 17.3087C16.6959 17.5388 17.5012 17.7689 18.1914 18.3441C18.3639 18.5166 18.6515 18.6892 18.709 18.9192C18.709 19.0343 18.709 19.0918 18.594 19.0918L17.9613 18.8042C17.3861 18.5166 16.6959 18.3441 16.0057 18.229C15.8907 18.7467 15.7756 19.2643 15.4305 19.7245C15.2005 19.9545 14.9129 20.0696 14.5678 20.0696C14.1076 20.0121 13.6475 19.782 13.3599 19.4369C13.0723 19.0343 13.0148 18.6316 12.9573 18.114L12.152 18.3441C11.9795 18.4016 11.8069 18.4591 11.6344 18.4016C11.3468 18.3441 11.2318 18.0565 11.2893 17.7689C11.3468 17.5388 11.5769 17.4238 11.8069 17.3663C12.4971 17.0787 13.3599 17.0212 14.1076 17.0787Z" fill="#262626"/>
<path d="M16.2941 10.5791C17.2143 10.6366 18.1921 10.9817 18.9399 11.5569C19.1124 11.7294 19.3425 11.8444 19.4 12.0745C19.4575 12.1895 19.3425 12.3621 19.2274 12.3046C18.7673 12.2471 18.3647 12.017 17.9045 11.902C17.5019 11.7294 17.0418 11.6144 16.5816 11.6144C16.179 11.5569 15.7189 11.6144 15.3163 11.6719C14.4535 11.7869 13.5907 12.1895 12.843 12.5922L11.6352 13.1098L11.5776 13.0523C11.6352 12.8222 11.7502 12.5346 11.9227 12.3621C12.2678 11.7869 12.9005 11.4418 13.4757 11.1542C14.3385 10.7516 15.3163 10.5215 16.2941 10.5791ZM27.4524 10.8091C27.74 10.9242 28.0851 11.0967 28.3152 11.3843C28.5452 11.6144 28.6028 11.902 28.5452 12.2471L27.2223 11.8444C26.8197 11.7294 26.4746 11.7869 26.072 11.7294C25.6694 11.7294 25.2092 11.7869 24.8641 12.017L24.1164 12.4771H23.9439C23.8863 12.3046 23.9439 12.132 24.0589 12.017C24.3465 11.4993 24.8066 11.1542 25.3243 10.9817C26.0145 10.7516 26.7047 10.6366 27.4524 10.8091Z" fill="#262626"/>
<path d="M23.4253 23.6328V23.6903C23.1953 24.1505 22.7926 24.5531 22.275 24.7256C22.1024 24.7832 21.8724 24.7832 21.7573 24.6681V24.4381C22.1599 24.1505 22.6776 23.9204 23.1377 23.7478L23.4253 23.6328Z" fill="#262626"/>
<path fill-rule="evenodd" clip-rule="evenodd" d="M15.3738 25.6428L14.5685 25.4128H14.511C14.396 25.3553 14.2234 25.3553 14.1659 25.4703C14.1084 25.5278 14.1659 25.6428 14.2234 25.6428L14.5685 25.8154L14.6836 25.8729C16.0061 26.5409 17.4215 27.0062 18.8823 27.2533C18.8823 27.656 18.9974 28.0586 19.285 28.4037C19.5725 28.8063 19.9752 29.1514 20.4928 29.324C21.068 29.554 21.7007 29.4965 22.2759 29.2664C22.851 29.0364 23.3112 28.5762 23.5412 28.0011C23.6563 27.771 23.6563 27.4834 23.6563 27.2533L24.6916 26.9082V26.8507L24.8066 26.7357C24.2506 26.7303 23.6946 26.7303 23.1386 26.7357C21.4869 26.8794 19.8234 26.802 18.1921 26.5056L15.949 25.8729L15.8339 25.8154L15.3738 25.6428ZM19.3425 27.3109C19.4 27.886 19.8601 28.3462 20.3778 28.6337C21.068 29.1514 22.2183 28.9213 22.6785 28.1736C22.851 27.9435 22.9085 27.656 22.9661 27.3684V27.3109L21.4706 27.4259L21.5281 27.4834C21.5281 27.656 21.5856 27.771 21.4706 27.9435C21.3556 28.1161 21.1255 28.1161 21.068 27.9435C20.953 27.771 20.953 27.5984 21.0105 27.4259C20.5316 27.3817 20.0523 27.3434 19.5725 27.3109H19.3425Z" fill="#262626"/>
<path d="M13.6486 -0.0078125H15.9493C18.7676 0.107222 21.5285 0.624878 24.2318 1.25757C25.8423 1.66019 27.3377 2.17785 28.7756 2.98309C29.5234 3.44323 30.3286 4.0184 30.9038 4.70861C31.594 5.45633 32.0541 6.37661 32.2267 7.3544C32.4567 8.56227 32.4567 9.82765 32.0541 11.0355C31.7665 11.8983 31.2489 12.761 30.5012 13.3362C29.4658 14.199 28.143 14.7741 26.8201 14.8317C26.705 14.8892 26.59 14.8317 26.59 14.6591L27.0501 13.7388C26.4337 14.3429 25.6855 14.7957 24.8645 15.0617C24.6344 15.1192 24.2893 15.1768 24.0592 15.0617V14.7741C24.0592 13.9114 24.0017 13.1061 23.7716 12.3009C23.5991 11.3806 23.1389 10.6329 22.7363 9.82765C22.8514 10.6904 22.7938 11.6107 22.6213 12.4734C22.4487 13.2787 22.1036 13.9689 21.5285 14.5441C21.4134 14.7741 21.1258 14.8317 20.8958 14.7166L20.7807 14.314C20.6657 13.6813 20.3781 13.1061 20.0905 12.531C19.5729 11.3806 18.8251 10.4028 17.9624 9.48254C16.703 8.2235 15.2208 7.20933 13.5911 6.49164C13.6757 8.50255 13.4821 10.5155 13.0159 12.4734C12.7858 13.2787 12.4407 14.0839 11.9231 14.7741C11.7505 15.0042 11.5204 15.3493 11.2329 15.4643H10.8302C10.8878 14.7741 10.8878 14.0839 10.7727 13.3937C10.6577 12.761 10.4851 12.0708 10.1975 11.4956C10.025 12.531 9.44982 13.3937 8.75961 14.199C8.24196 14.6591 7.7243 15.1192 7.09161 15.4643V19.3755L7.14913 21.101C7.14913 21.2736 6.97657 21.5612 6.80402 21.6187C6.51644 21.5612 6.28637 21.4461 6.0563 21.2736C5.36609 20.8135 4.7334 20.2958 4.15823 19.6631C3.21433 18.6155 2.4931 17.387 2.03829 16.0523C1.58348 14.7175 1.40458 13.3043 1.51243 11.8983C1.70448 9.4225 2.61106 7.05572 4.12214 5.0852C5.63321 3.11467 7.6838 1.62515 10.025 0.79743C11.1753 0.337291 12.3832 0.0497048 13.6486 -0.0078125Z" fill="#262626"/>
</svg>
